<svg t="1760608347256" class="icon" viewBox="0 0 1024 1024" version="1.1" xmlns="http://www.w3.org/2000/svg" p-id="6236" width="200" height="200"><path d="M208.979592 1024h606.040816c115.461224 0 208.979592-93.518367 208.979592-208.979592V208.979592C1024 93.518367 930.481633 0 815.020408 0H208.979592C93.518367 0 0 93.518367 0 208.979592v606.040816c0 115.461224 93.518367 208.979592 208.979592 208.979592z" fill="#393939" p-id="6237"></path><path d="M208.979592 982.204082h606.040816c115.461224 0 208.979592-93.518367 208.979592-208.979592V208.979592C1024 93.518367 930.481633 0 815.020408 0H208.979592C93.518367 0 0 93.518367 0 208.979592v564.244898c0 115.461224 93.518367 208.979592 208.979592 208.979592z" fill="#484848" p-id="6238"></path><path d="M198.530612 971.755102h626.938776c109.609796 0 198.530612-88.920816 198.530612-198.530612V219.428571C1024 103.967347 930.481633 10.44898 815.020408 10.44898H208.979592C93.518367 10.44898 0 103.967347 0 219.428571v553.795919c0 109.609796 88.920816 198.530612 198.530612 198.530612z" fill="#625C5D" p-id="6239"></path><path d="M198.530612 929.959184h626.938776c69.276735 0 125.387755-56.11102 125.387755-125.387755V198.530612c0-80.770612-65.515102-146.285714-146.285714-146.285714H219.428571C138.657959 52.244898 73.142857 117.76 73.142857 198.530612v606.040817c0 69.276735 56.11102 125.387755 125.387755 125.387755z" fill="#E46161" p-id="6240"></path><path d="M208.979592 898.612245h606.040816c69.276735 0 125.387755-56.11102 125.387755-125.387755V167.183673c0-69.276735-56.11102-125.387755-125.387755-125.387755H208.979592C139.702857 41.795918 83.591837 97.906939 83.591837 167.183673v606.040817c0 69.276735 56.11102 125.387755 125.387755 125.387755z" fill="#1F1E1E" p-id="6241"></path><path d="M694.857143 125.387755L856.816327 287.451429l-35.94449 35.84 17.972245-17.972245-66.455511-66.455511v-30.197551 124.969796H647.418776V208.666122h22.674285l-29.257143-29.257142 18.076735-18.076735 47.333878 47.333877h35.944489l-65.306122-65.306122z m126.014694 197.903674l-17.972245 18.076734-30.511021-30.51102V274.808163zM622.863673 197.381224l3.761633 6.060409v35.42204l-21.733877-23.510204z m-35.944489 35.94449l39.706122 39.706123v36.153469l-57.782857-57.782857z m-36.04898 36.04898l75.755102 75.755102v9.299592h9.404082l76.90449 76.90449L694.857143 449.306122 532.897959 287.451429z m215.980408 108.042449l-22.883265-22.987755h33.645714l7.209796 4.91102z m-36.048979 36.048979l-58.932245-59.036734h36.048979l40.96 40.96z" fill="#FFF8F8" p-id="6242"></path><path d="M672.454531 143.318204l22.360816-22.360816 166.452245 166.452245-38.138776 38.138775-20.27102 20.271021-27.376327-27.376327v18.285714h-131.239183v-131.239183h18.285714l-26.122449-26.122449 22.465306-22.465306 48.692245 48.587755h27.062857l-59.977143-59.872653z m33.750204 65.306123l-47.333878-47.333878-18.076735 18.076735 29.257143 29.257143h-22.674285v124.969795h124.969796v-22.778775l30.51102 30.51102 17.972245-18.076734-48.483265-48.483266v-35.944489l66.45551 66.45551-17.972245 17.972245 35.94449-35.84-161.959184-162.063674-17.972245 17.972245 65.306122 65.306123z m132.597551 96.653061l-66.45551-66.45551v35.944489l48.483265 48.483266z m-238.236735-89.965715l22.883265-22.987755 6.269388 10.24v44.303674l-27.167347-29.361633z m26.017959-11.911836l-3.761632-6.060408-17.972245 17.972244 21.733877 23.510205z m-62.171428 47.960816l22.465306-22.465306 42.840816 42.840816v45.035102l-63.111837-63.111836z m62.171428 21.629388l-39.706122-39.706123-18.076735 18.076735 57.782857 57.782857z m-98.115918 14.524081l22.360816-22.569795 78.889796 78.889795v7.418776h7.627755l80.039184 80.039184-22.569796 22.465306-164.153469-164.04898z m184.42449 143.77796l-76.90449-76.90449h-9.404082v-9.299592l-75.755102-75.755102-17.972245 18.076735 161.959184 161.854694z m40.437551-35.94449l-22.569796 22.569796-66.45551-66.66449h44.930612l41.900408 41.900408z m36.362449-36.466939l-22.883266 22.987755-30.40653-30.61551h42.213877l7.941225 5.537959z m-117.86449-4.493061l58.932245 59.036735 18.076734-18.076735-40.96-40.96z m72.097959 0l22.883265 22.987755 17.972245-18.076735-7.209796-4.91102z" fill="#E46161" p-id="6243"></path><path d="M331.399837 660.082939l-0.522449 13.165714h-1.985306c-4.284082 0-8.463673 0.835918-8.463674 0.835918-4.179592 0.835918-7.836735 3.134694-7.836735 3.134694-3.657143 2.298776-6.582857 6.164898-6.582857 6.164898-3.030204 3.866122-4.806531 9.926531-4.80653 9.926531v59.454694h-14.315102v-91.010612h14.315102v16.613877c2.089796-5.746939 5.32898-9.299592 5.328979-9.299592 3.134694-3.552653 6.896327-5.537959 6.896327-5.537959 3.866122-2.089796 8.150204-2.716735 8.150204-2.716735 4.179592-0.731429 8.150204-0.731429 8.150204-0.731428z m54.021224 0c10.657959 0 17.554286 2.089796 17.554286 2.089796 6.896327 2.194286 10.971429 5.851429 10.971429 5.851428 4.075102 3.761633 5.642449 8.986122 5.642448 8.986123 1.567347 5.22449 1.567347 11.284898 1.567347 11.284898v64.470204h-12.120816l-2.194286-13.792653c-1.985306 3.761633-5.32898 6.582857-5.328979 6.582857-3.343673 2.821224-7.523265 4.91102-7.523266 4.91102-4.284082 1.985306-9.195102 3.030204-9.195102 3.030204-5.01551 1.044898-10.03102 1.044898-10.03102 1.044898-16.091429 0-23.510204-7.105306-23.510204-7.105306-7.418776-7.105306-7.418776-20.062041-7.418776-20.062041 0-8.150204 2.612245-13.688163 2.612245-13.688163 2.612245-5.537959 7.209796-8.881633 7.209796-8.881633 4.702041-3.448163 11.284898-4.91102 11.284898-4.91102 6.478367-1.567347 14.524082-1.567347 14.524082-1.567347h27.376326v-7.523265c0-4.075102-0.940408-7.523265-0.940408-7.523266-0.835918-3.448163-3.239184-5.851429-3.239183-5.851428-2.507755-2.507755-6.791837-3.866122-6.791837-3.866123-4.284082-1.358367-11.075918-1.358367-11.075919-1.358367-4.493061 0-9.717551 0.522449-9.717551 0.522449-5.32898 0.522449-10.13551 1.567347-10.13551 1.567347v-12.852245c5.01551-0.626939 10.34449-0.940408 10.34449-0.940408 5.32898-0.417959 10.13551-0.417959 10.13551-0.417959z m9.926531 77.635918c8.045714-4.597551 11.493878-12.747755 11.493877-12.747755v-14.942041h-26.435918c-5.433469 0-9.613061 0.626939-9.613061 0.626939-4.179592 0.731429-6.791837 2.612245-6.791837 2.612245-2.716735 1.985306-3.970612 5.32898-3.970612 5.328979-1.358367 3.343673-1.358367 8.568163-1.358368 8.568164 0 7.627755 3.970612 11.389388 3.970613 11.389388 3.970612 3.761633 13.479184 3.761633 13.479183 3.761632 11.284898 0 19.226122-4.597551 19.226123-4.597551z m52.244898 36.362449c11.598367 0 17.345306-5.22449 17.345306-5.22449 5.746939-5.22449 9.090612-16.195918 9.090612-16.195918l-35.94449-90.906122h15.46449l27.376327 75.546122h1.044898l25.913469-75.546122h14.419592l-32.182857 87.980408c-3.134694 8.672653-6.478367 15.36-6.478368 15.36-3.343673 6.791837-8.045714 11.598367-8.045714 11.598367-4.806531 4.806531-11.389388 7.314286-11.389388 7.314286-6.687347 2.507755-16.613878 2.507755-16.613877 2.507755z m127.79102-19.539592c-10.03102 0-17.763265-2.298776-17.763265-2.298775-7.732245-2.298776-13.061224-7.732245-13.061225-7.732245-5.32898-5.537959-8.045714-14.524082-8.045714-14.524082-2.716735-8.986122-2.716735-22.674286-2.716735-22.674285 0-13.688163 2.716735-22.674286 2.716735-22.674286 2.716735-8.986122 8.045714-14.524082 8.045714-14.524082 5.32898-5.433469 13.061224-7.732245 13.061225-7.732245 7.732245-2.298776 17.763265-2.298776 17.763265-2.298775 7.418776 0 13.479184 1.044898 13.479184 1.044898 6.060408 1.044898 9.926531 2.403265 9.92653 2.403265v13.270204c-5.01551-1.880816-10.657959-2.925714-10.657959-2.925714-5.642449-1.149388-12.643265-1.149388-12.643265-1.149388-7.418776 0-12.434286 1.671837-12.434286 1.671837-5.01551 1.776327-8.150204 5.642449-8.150204 5.642449-3.134694 3.970612-4.493061 10.657959-4.493061 10.657959-1.358367 6.687347-1.358367 16.822857-1.358367 16.822857 0 9.926531 1.358367 16.509388 1.358367 16.509388 1.358367 6.582857 4.493061 10.44898 4.493061 10.448979 3.134694 3.970612 8.254694 5.642449 8.254694 5.642449 5.01551 1.567347 12.538776 1.567347 12.538776 1.567347 6.269388 0 12.434286-0.940408 12.434285-0.940408 6.164898-0.940408 10.971429-2.925714 10.971429-2.925714v13.270204c-1.880816 0.731429-4.597551 1.253878-4.597551 1.253878-2.716735 0.626939-5.955918 1.149388-5.955919 1.149387-3.239184 0.522449-6.687347 0.731429-6.687346 0.731429-3.343673 0.313469-6.478367 0.313469-6.478368 0.313469z m81.81551-94.458775c10.657959 0 17.554286 2.089796 17.554286 2.089796 6.896327 2.194286 10.971429 5.851429 10.971429 5.851428 4.075102 3.761633 5.642449 8.986122 5.642449 8.986123 1.567347 5.22449 1.567347 11.284898 1.567347 11.284898v64.470204h-12.120817l-2.089796-13.792653c-1.985306 3.761633-5.32898 6.582857-5.328979 6.582857-3.343673 2.821224-7.627755 4.91102-7.627755 4.91102-4.179592 1.985306-9.195102 3.030204-9.195102 3.030204-5.01551 1.044898-9.926531 1.044898-9.926531 1.044898-16.195918 0-23.510204-7.105306-23.510204-7.105306-7.418776-7.105306-7.418776-20.062041-7.418776-20.062041 0-8.150204 2.612245-13.688163 2.612245-13.688163 2.507755-5.537959 7.209796-8.881633 7.209796-8.881633 4.597551-3.448163 11.180408-4.91102 11.180408-4.91102 6.582857-1.567347 14.524082-1.567347 14.524082-1.567347h27.480816v-7.523265c0-4.075102-0.940408-7.523265-0.940408-7.523266-0.940408-3.448163-3.343673-5.851429-3.343673-5.851428-2.403265-2.507755-6.687347-3.866122-6.687347-3.866123-4.388571-1.358367-11.180408-1.358367-11.180408-1.358367-4.493061 0-9.717551 0.522449-9.717551 0.522449-5.22449 0.522449-10.03102 1.567347-10.031021 1.567347v-12.852245c5.01551-0.626939 10.24-0.940408 10.24-0.940408 5.32898-0.417959 10.13551-0.417959 10.13551-0.417959z m10.031021 77.635918c7.941224-4.597551 11.493878-12.747755 11.493877-12.747755v-14.942041h-26.435918c-5.537959 0-9.613061 0.626939-9.613061 0.626939-4.179592 0.731429-6.896327 2.612245-6.896327 2.612245-2.612245 1.985306-3.970612 5.32898-3.970612 5.328979-1.358367 3.343673-1.358367 8.568163-1.358367 8.568164 0 7.627755 4.075102 11.389388 4.075102 11.389388 3.970612 3.761633 13.374694 3.761633 13.374694 3.761632 11.389388 0 19.330612-4.597551 19.330612-4.597551z m76.90449 16.091429c-3.343673 0-7.000816-0.20898-7.000817-0.20898l-7.418775-0.626939c-3.657143-0.313469-6.791837-0.940408-6.791837-0.940408-3.030204-0.522449-4.91102-1.044898-4.91102-1.044898v-12.538775c2.403265 0.731429 5.642449 1.358367 5.642449 1.358367 3.239184 0.731429 6.687347 1.253878 6.687347 1.253878 3.552653 0.417959 7.105306 0.731429 7.105306 0.731428 3.552653 0.20898 6.582857 0.20898 6.582857 0.20898 10.24 0 15.46449-2.925714 15.46449-2.925715 5.22449-2.925714 5.22449-11.075918 5.224489-11.075918 0-3.970612-0.731429-6.582857-0.731428-6.582857-0.731429-2.612245-2.925714-4.388571-2.925714-4.388571-2.089796-1.776327-6.060408-3.134694-6.060409-3.134694-3.866122-1.358367-10.34449-2.925714-10.344489-2.925715-7.523265-1.671837-12.329796-3.866122-12.329796-3.866122-4.806531-2.194286-7.627755-5.22449-7.627755-5.22449-2.821224-3.030204-3.970612-7.209796-3.970613-7.209796-1.149388-4.179592-1.149388-9.926531-1.149387-9.92653 0-11.180408 8.045714-17.867755 8.045714-17.867755 8.045714-6.791837 24.137143-6.791837 24.137143-6.791837 6.478367 0 12.956735 0.835918 12.956734 0.835918 6.373878 0.835918 9.717551 2.194286 9.717551 2.194286l-1.044898 12.329796c-3.866122-1.462857-9.508571-2.507755-9.508571-2.507755-5.642449-1.044898-11.911837-1.044898-11.911837-1.044898-9.508571 0-14.210612 2.716735-14.210612 2.716734-4.702041 2.716735-4.702041 10.44898-4.702041 10.44898 0 3.552653 0.731429 5.746939 0.731429 5.746939 0.731429 2.194286 2.507755 3.761633 2.507755 3.761632 1.880816 1.567347 5.22449 2.716735 5.22449 2.716735 3.239184 1.044898 8.568163 2.298776 8.568163 2.298776 7.732245 1.776327 13.061224 3.970612 13.061224 3.970612 5.433469 2.089796 8.777143 5.22449 8.777143 5.22449 3.239184 3.030204 4.806531 7.627755 4.806531 7.627755 1.462857 4.597551 1.462857 11.075918 1.462857 11.075918 0 13.688163-8.672653 20.062041-8.672653 20.062041-8.777143 6.269388-25.39102 6.269388-25.39102 6.269388z m86.72653-12.120817c3.030204 0 5.22449-0.20898 5.22449-0.208979 2.298776-0.313469 4.597551-0.835918 4.597551-0.835919v12.329796c-2.612245 0.313469-5.01551 0.626939-5.01551 0.626939-2.298776 0.20898-5.12 0.20898-5.12 0.20898-7.523265 0-12.538776-1.044898-12.538776-1.044898-5.12-1.149388-8.359184-4.388571-8.359183-4.388572-3.239184-3.134694-4.597551-8.777143-4.597551-8.777143-1.462857-5.642449-1.462857-14.628571-1.462858-14.628571v-50.99102h-13.270204v-12.225306h13.270204v-21.524898h14.315103v21.524898h22.256326v12.225306h-22.256326v50.155102c0 5.433469 0.522449 8.777143 0.522449 8.777143 0.522449 3.343673 1.880816 5.32898 1.880816 5.328979 1.462857 1.880816 3.970612 2.716735 3.970612 2.716735 2.403265 0.731429 6.582857 0.731429 6.582857 0.731428z" fill="#FFF8F8" p-id="6244"></path><path d="M830.861061 738.554776c1.880816 0 3.552653-0.10449 4.911021-0.20898 1.358367-0.20898 2.821224-0.417959 4.179591-0.731429l3.866123-0.940408v19.017143l-7.732245 1.044898h-0.10449c-1.671837 0.10449-3.448163 0.20898-5.433469 0.20898-5.22449 0-9.613061-0.417959-13.270204-1.149388a19.748571 19.748571 0 0 1-9.822041-5.12c-2.612245-2.507755-4.388571-5.955918-5.433469-10.24-1.044898-4.075102-1.567347-9.195102-1.567347-15.46449v-47.856326h-13.270204v-18.494694h13.270204v-21.524898h20.584489v21.524898h22.256327v18.494694h-22.256327v47.020408c0 3.448163 0.20898 6.269388 0.522449 8.254694 0.20898 1.776327 0.626939 3.030204 1.253878 3.970612 0.626939 0.731429 1.358367 1.253878 2.403265 1.567347 1.358367 0.417959 3.239184 0.626939 5.642449 0.626939z m-12.434285-5.642449s-0.522449-3.343673-0.522449-8.777143v-50.155102h22.256326v-12.225306h-22.256326v-21.524898h-14.315103v21.524898h-13.270204v12.225306h13.270204v50.99102s0 8.986122 1.462858 14.628571c0 0 1.358367 5.642449 4.597551 8.777143 0 0 3.239184 3.239184 8.359183 4.388572 0 0 5.01551 1.044898 12.538776 1.044898 0 0 2.821224 0 5.12-0.20898 0 0 2.403265-0.313469 5.01551-0.626939v-12.329796s-2.298776 0.522449-4.597551 0.835919c0 0-2.194286 0.20898-5.22449 0.208979 0 0-4.179592 0-6.582857-0.731428 0 0-2.507755-0.835918-3.970612-2.716735 0 0-1.358367-1.985306-1.880816-5.328979z m-488.698776-75.964082h4.91102l-0.731428 19.435102h-5.01551c-2.612245 0-5.22449 0.20898-7.836735 0.731429-2.403265 0.522449-4.702041 1.462857-6.791837 2.716734-2.089796 1.358367-4.075102 3.134694-5.746939 5.537959-1.776327 2.089796-3.134694 4.91102-4.179591 8.359184v62.171429h-20.58449v-97.28h20.58449v8.150204c2.298776-2.507755 4.806531-4.493061 7.627755-5.955919 2.821224-1.567347 5.955918-2.612245 9.090612-3.134694 2.925714-0.522449 5.851429-0.731429 8.672653-0.731428z m45.348571 0.417959c3.657143-0.313469 7.105306-0.417959 10.34449-0.417959 7.418776 0 13.583673 0.731429 18.494694 2.194286 5.01551 1.671837 9.090612 3.866122 12.120816 6.582857 3.134694 2.925714 5.32898 6.373878 6.582858 10.34449 1.149388 3.866122 1.671837 7.836735 1.671836 12.225306v67.604898h-17.972245l-1.462857-9.195102c-0.417959 0.417959-0.835918 0.835918-1.358367 1.253877-2.403265 1.985306-5.12 3.761633-8.150204 5.32898-3.134694 1.462857-6.373878 2.507755-9.926531 3.239183-3.552653 0.731429-7.105306 1.149388-10.657959 1.149388-7.209796 0-13.479184-1.253878-19.121633-3.866122-2.821224-1.253878-5.01551-2.716735-6.582857-4.075102-3.552653-3.448163-5.955918-8.150204-7.314285-14.315102-0.731429-2.925714-1.044898-5.642449-1.044898-8.045715 0-3.657143 0.522449-7.209796 1.462857-10.762449 0.417959-1.776327 0.940408-3.134694 1.462857-4.284081 1.985306-4.179592 4.702041-7.523265 8.150204-10.031021 3.552653-2.612245 7.627755-4.388571 12.434286-5.433469 4.597551-1.149388 9.613061-1.671837 15.25551-1.671837h24.241633v-4.388571c0-2.403265-0.313469-4.702041-0.835919-6.687347v-0.10449a10.062367 10.062367 0 0 0-2.403265-4.388571c-1.358367-1.253878-3.134694-2.298776-5.537959-3.030204-2.507755-0.835918-5.955918-1.253878-10.135511-1.253878a101.971592 101.971592 0 0 0-19.226122 1.985306l-3.761633 0.835918v-19.435102l2.716735-0.417959c3.448163-0.417959 6.896327-0.731429 10.553469-0.940408z m200.306939 100.310204c-7.000816 0-13.165714-0.835918-18.703673-2.403265a34.481633 34.481633 0 0 1-10.34449-5.22449c-1.671837-1.149388-3.030204-2.298776-4.075102-3.343673-2.403265-2.612245-4.597551-5.955918-6.582857-10.24-0.940408-2.089796-1.671837-3.970612-2.194286-5.53796-1.149388-3.970612-1.985306-9.090612-2.507755-15.464489-0.20898-3.030204-0.313469-5.746939-0.313469-8.150204 0-5.851429 0.417959-11.598367 1.358367-17.031837 0.522449-2.716735 1.044898-4.91102 1.462857-6.582857 1.253878-3.970612 3.030204-7.836735 5.433469-11.389388 1.253878-1.880816 2.403265-3.343673 3.448164-4.388572 2.403265-2.507755 5.537959-4.702041 9.404081-6.582857 1.880816-0.835918 3.552653-1.567347 4.911021-1.985306 5.537959-1.567347 11.702857-2.403265 18.703673-2.403265 5.12 0 9.822041 0.313469 14.001633 1.044898 4.179592 0.731429 7.732245 1.567347 10.448979 2.612245l2.089796 0.731428v19.957551l-4.284081-1.567347c-3.134694-1.149388-6.478367-2.089796-10.13551-2.821224-3.552653-0.731429-7.523265-1.044898-12.016327-1.044898-4.597551 0-8.359184 0.522449-11.389388 1.462857-2.821224 1.044898-5.01551 2.612245-6.687347 4.702041-1.776327 2.194286-3.134694 5.32898-3.970612 9.299592-0.835918 4.284082-1.253878 9.613061-1.253877 16.195918 0 6.373878 0.417959 11.702857 1.253877 15.882449 0.835918 3.866122 2.089796 6.896327 3.970612 9.090612 1.671837 2.194286 3.866122 3.761633 6.687347 4.597551 3.030204 0.940408 6.896327 1.462857 11.598368 1.462858 3.970612 0 8.045714-0.313469 11.911836-0.940409 3.866122-0.522449 7.314286-1.462857 10.34449-2.716734l4.284082-1.776327v20.166531l-1.985306 0.731428c-1.462857 0.522449-3.134694 1.044898-5.12 1.358368-1.880816 0.417959-3.866122 0.835918-6.060409 1.253877-2.298776 0.313469-4.597551 0.626939-7.000816 0.731429-2.298776 0.20898-4.493061 0.313469-6.687347 0.313469z m71.471021-100.310204c3.657143-0.313469 7.105306-0.417959 10.344489-0.417959 7.418776 0 13.583673 0.731429 18.494694 2.194286 5.01551 1.671837 9.090612 3.866122 12.120817 6.582857 3.134694 2.925714 5.32898 6.373878 6.582857 10.34449 1.149388 3.866122 1.671837 7.836735 1.671836 12.225306v67.604898h-17.972244l-1.358368-9.090613c-0.417959 0.313469-0.835918 0.731429-1.358367 1.149388-2.403265 2.089796-5.12 3.866122-8.254694 5.32898-3.030204 1.462857-6.373878 2.507755-9.926531 3.239183-3.552653 0.731429-7.105306 1.149388-10.553469 1.149388-7.209796 0-13.583673-1.253878-19.121633-3.866122-2.925714-1.358367-5.12-2.716735-6.582857-4.075102-3.552653-3.448163-5.955918-8.150204-7.314285-14.315102-0.731429-2.925714-1.044898-5.642449-1.044898-8.045715 0-3.657143 0.522449-7.209796 1.462857-10.762449 0.417959-1.776327 0.940408-3.134694 1.462857-4.179591 1.149388-2.716735 2.925714-5.12 5.12-7.418776 1.149388-1.149388 2.089796-2.089796 3.030204-2.716735 3.448163-2.612245 7.523265-4.388571 12.329796-5.433469 4.597551-1.149388 9.717551-1.671837 15.25551-1.671837h24.346122v-4.388571c0-2.403265-0.313469-4.702041-0.835918-6.687347a10.229551 10.229551 0 0 0-2.612245-4.493061c-1.149388-1.358367-3.030204-2.298776-5.328979-3.030204-2.612245-0.835918-6.060408-1.253878-10.24-1.253878a101.971592 101.971592 0 0 0-19.121633 1.985306l-3.761633 0.835918v-19.435102l2.716735-0.417959c3.448163-0.417959 6.896327-0.731429 10.44898-0.940408z m124.447347 92.682449c-3.970612 2.925714-9.822041 4.91102-17.345307 6.060408-3.657143 0.522449-6.896327 0.835918-9.82204 0.835919-2.298776 0-4.702041-0.10449-7.209796-0.20898l-7.523266-0.626939c-2.507755-0.20898-4.91102-0.522449-7.000816-0.940408-2.194286-0.417959-3.866122-0.835918-5.22449-1.149388l-2.298775-0.626938v-19.121633l4.075102 1.149388c1.462857 0.522449 3.239184 0.940408 5.328979 1.358367h0.10449c1.985306 0.417959 4.179592 0.835918 6.373878 1.149388 2.298776 0.313469 4.597551 0.522449 6.896326 0.731428 2.298776 0.10449 4.388571 0.20898 6.373878 0.20898 3.970612 0 7.523265-0.417959 10.762449-1.358367 1.462857-0.417959 2.507755-0.835918 3.134694-1.149388 1.462857-0.835918 2.507755-2.403265 3.134694-4.702041 0.313469-1.358367 0.522449-2.612245 0.522449-3.657143 0-2.403265-0.20898-4.284082-0.626939-5.746939a6.123102 6.123102 0 0 0-1.880817-2.821224c-1.149388-0.940408-2.821224-1.776327-5.12-2.612245-2.507755-0.835918-5.851429-1.776327-10.03102-2.821225-5.22449-1.149388-9.508571-2.507755-12.852245-4.075102-3.657143-1.567347-6.478367-3.552653-8.672653-5.955918-2.194286-2.298776-3.761633-5.22449-4.702041-8.463673-0.835918-3.030204-1.253878-6.687347-1.253877-10.762449 0-5.32898 1.462857-10.24 4.493061-14.837551 1.567347-2.298776 3.134694-4.075102 4.702041-5.43347 3.761633-3.239184 9.299592-5.433469 16.509387-6.582857 3.552653-0.626939 6.791837-0.940408 9.613062-0.940408 4.493061 0 8.881633 0.313469 13.374694 0.835918 4.493061 0.626939 8.045714 1.462857 10.448979 2.403266l2.194286 0.940408-1.567347 18.703673-3.970612-1.462857a55.902041 55.902041 0 0 0-8.881633-2.403265c-3.657143-0.626939-7.418776-0.940408-11.389388-0.940408-3.657143 0-6.896327 0.417959-9.822041 1.253877-1.358367 0.313469-2.298776 0.731429-2.821224 1.044898-1.149388 0.731429-2.089796 2.089796-2.612245 4.284082-0.313469 1.253878-0.522449 2.403265-0.522449 3.448163 0 1.985306 0.20898 3.657143 0.522449 4.806531 0.313469 0.835918 0.835918 1.671837 1.671837 2.298775 0.940408 0.835918 2.298776 1.567347 4.075102 2.089796 2.089796 0.731429 4.91102 1.462857 8.359184 2.298776 5.32898 1.149388 9.822041 2.612245 13.479183 4.075102 3.970612 1.567347 7.209796 3.552653 9.717551 5.851428 2.612245 2.403265 4.493061 5.32898 5.746939 8.986123 1.044898 3.343673 1.567347 7.418776 1.567347 12.016326 0 6.373878-1.567347 11.911837-4.806531 16.927347-1.671837 2.507755-3.343673 4.388571-5.12 5.642449z m-326.844082 39.601633v-18.703674h3.134694c4.388571 0 8.254694-0.731429 11.702857-2.298775 1.671837-0.731429 2.821224-1.462857 3.552653-2.089796 2.089796-1.880816 4.075102-4.91102 5.955918-9.090612 0.731429-1.671837 1.358367-3.239184 1.880817-4.702041l-37.198368-94.145306h22.256327l25.6 70.739591 24.346122-70.739591h21.106939l-33.750204 92.16c-2.089796 5.955918-4.284082 11.180408-6.582857 15.673469-2.403265 4.806531-5.22449 8.986122-8.672653 12.434286-3.448163 3.552653-7.627755 6.269388-12.434286 8.045714-4.91102 1.776327-10.762449 2.716735-17.763265 2.716735z m-131.030204-126.119184s-3.761633 1.985306-6.896327 5.537959c0 0-3.239184 3.552653-5.328979 9.299592v-16.613877h-14.315102v91.010612h14.315102v-59.454694s1.776327-6.060408 4.80653-9.926531c0 0 2.925714-3.866122 6.582857-6.164898 0 0 3.657143-2.298776 7.836735-3.134694 0 0 4.179592-0.835918 8.463674-0.835918h1.985306l0.522449-13.165714h-1.671837s-3.970612 0-8.150204 0.731428c0 0-4.284082 0.626939-8.150204 2.716735z m51.513469 10.762449s4.806531-1.044898 10.13551-1.567347c0 0 5.22449-0.522449 9.717551-0.522449 0 0 6.791837 0 11.075919 1.358367 0 0 4.284082 1.358367 6.791837 3.866123 0 0 2.403265 2.403265 3.239183 5.851428 0 0 0.940408 3.448163 0.940408 7.523266v7.523265h-27.376326s-8.045714 0-14.524082 1.567347c0 0-6.582857 1.462857-11.284898 4.91102 0 0-4.597551 3.343673-7.209796 8.881633 0 0-2.612245 5.537959-2.612245 13.688163 0 0 0 12.956735 7.418776 20.062041 0 0 7.418776 7.105306 23.510204 7.105306 0 0 5.01551 0 10.03102-1.044898 0 0 4.91102-1.044898 9.195102-3.030204 0 0 4.179592-2.089796 7.523266-4.91102 0 0 3.343673-2.821224 5.328979-6.582857l2.194286 13.792653h12.120816v-64.470204s0-6.060408-1.567347-11.284898c0 0-1.567347-5.22449-5.642448-8.986123 0 0-4.075102-3.657143-10.971429-5.851428 0 0-6.896327-2.089796-17.554286-2.089796 0 0-4.806531 0-10.13551 0.417959 0 0-5.32898 0.313469-10.34449 0.940408z m229.564082 78.053878s2.716735-0.522449 4.597551-1.253878v-13.270204s-4.806531 1.985306-10.971429 2.925714c0 0-6.164898 0.940408-12.434285 0.940408 0 0-7.523265 0-12.538776-1.567347 0 0-5.12-1.671837-8.254694-5.642449 0 0-3.134694-3.866122-4.493061-10.448979 0 0-1.358367-6.582857-1.358367-16.509388 0 0 0-10.13551 1.358367-16.822857 0 0 1.358367-6.687347 4.493061-10.657959 0 0 3.134694-3.866122 8.150204-5.642449 0 0 5.01551-1.671837 12.434286-1.671837 0 0 7.000816 0 12.643265 1.149388 0 0 5.642449 1.044898 10.657959 2.925714v-13.270204s-3.866122-1.358367-9.92653-2.403265c0 0-6.060408-1.044898-13.479184-1.044898 0 0-10.03102 0-17.763265 2.298775 0 0-7.732245 2.298776-13.061225 7.732245 0 0-5.32898 5.537959-8.045714 14.524082 0 0-2.716735 8.986122-2.716735 22.674286 0 0 0 13.688163 2.716735 22.674285 0 0 2.716735 8.986122 8.045714 14.524082 0 0 5.32898 5.433469 13.061225 7.732245 0 0 7.732245 2.298776 17.763265 2.298775 0 0 3.134694 0 6.478368-0.313469 0 0 3.448163-0.20898 6.687346-0.731429 0 0 3.239184-0.522449 5.955919-1.149387z m42.318367-78.053878s4.806531-1.044898 10.031021-1.567347c0 0 5.22449-0.522449 9.717551-0.522449 0 0 6.791837 0 11.180408 1.358367 0 0 4.284082 1.358367 6.687347 3.866123 0 0 2.403265 2.403265 3.343673 5.851428 0 0 0.940408 3.448163 0.940408 7.523266v7.523265h-27.480816s-7.941224 0-14.524082 1.567347c0 0-6.582857 1.462857-11.180408 4.91102 0 0-4.702041 3.343673-7.209796 8.881633 0 0-2.612245 5.537959-2.612245 13.688163 0 0 0 12.956735 7.418776 20.062041 0 0 7.314286 7.105306 23.510204 7.105306 0 0 4.91102 0 9.926531-1.044898 0 0 5.01551-1.044898 9.195102-3.030204 0 0 4.284082-2.089796 7.627755-4.91102 0 0 3.343673-2.821224 5.328979-6.582857l2.089796 13.792653h12.120817v-64.470204s0-6.060408-1.567347-11.284898c0 0-1.567347-5.22449-5.642449-8.986123 0 0-4.075102-3.657143-10.971429-5.851428 0 0-6.896327-2.089796-17.554286-2.089796 0 0-4.806531 0-10.13551 0.417959 0 0-5.22449 0.313469-10.24 0.940408z m139.911837 42.109388s-1.567347-4.597551-4.806531-7.627755c0 0-3.343673-3.134694-8.777143-5.22449 0 0-5.32898-2.194286-13.061224-3.970612 0 0-5.32898-1.253878-8.568163-2.298776 0 0-3.343673-1.149388-5.22449-2.716735 0 0-1.776327-1.567347-2.507755-3.761632 0 0-0.731429-2.194286-0.731429-5.746939 0 0 0-7.732245 4.702041-10.44898 0 0 4.702041-2.716735 14.210612-2.716734 0 0 6.269388 0 11.911837 1.044898 0 0 5.642449 1.044898 9.508571 2.507755l1.044898-12.329796s-3.343673-1.358367-9.717551-2.194286c0 0-6.478367-0.835918-12.956734-0.835918 0 0-16.091429 0-24.137143 6.791837 0 0-8.045714 6.687347-8.045714 17.867755 0 0 0 5.746939 1.149387 9.92653 0 0 1.149388 4.179592 3.970613 7.209796 0 0 2.821224 3.030204 7.627755 5.22449 0 0 4.806531 2.194286 12.329796 3.866122 0 0 6.478367 1.567347 10.344489 2.925715 0 0 3.970612 1.358367 6.060409 3.134694 0 0 2.194286 1.776327 2.925714 4.388571 0 0 0.731429 2.612245 0.731428 6.582857 0 0 0 8.150204-5.224489 11.075918 0 0-5.22449 2.925714-15.46449 2.925715 0 0-3.030204 0-6.582857-0.20898 0 0-3.552653-0.313469-7.105306-0.731428 0 0-3.448163-0.522449-6.687347-1.253878 0 0-3.239184-0.626939-5.642449-1.358367v12.538775s1.880816 0.522449 4.91102 1.044898c0 0 3.134694 0.626939 6.791837 0.940408l7.418775 0.626939s3.657143 0.20898 7.000817 0.20898c0 0 16.613878 0 25.39102-6.269388 0 0 8.672653-6.373878 8.672653-20.062041 0 0 0-6.478367-1.462857-11.075918z m-301.139592 60.290612s4.702041-4.806531 8.045714-11.598367c0 0 3.343673-6.687347 6.478368-15.36l32.182857-87.980408h-14.419592l-25.913469 75.546122h-1.044898l-27.376327-75.546122h-15.46449l35.94449 90.906122s-3.343673 10.971429-9.090612 16.195918c0 0-5.746939 5.22449-17.345306 5.22449v12.434286s9.926531 0 16.613877-2.507755c0 0 6.582857-2.507755 11.389388-7.314286z m-68.754286-51.722449s-3.448163 8.150204-11.493877 12.747755c0 0-7.941224 4.597551-19.226123 4.597551 0 0-9.508571 0-13.479183-3.761632 0 0-3.970612-3.761633-3.970613-11.389388 0 0 0-5.22449 1.358368-8.568164 0 0 1.253878-3.343673 3.970612-5.328979 0 0 2.612245-1.880816 6.791837-2.612245 0 0 4.179592-0.626939 9.613061-0.626939h26.435918z m271.882449 0s-3.552653 8.150204-11.493877 12.747755c0 0-7.941224 4.597551-19.330612 4.597551 0 0-9.404082 0-13.374694-3.761632 0 0-4.075102-3.761633-4.075102-11.389388 0 0 0-5.22449 1.358367-8.568164 0 0 1.358367-3.343673 3.970612-5.328979 0 0 2.716735-1.880816 6.896327-2.612245 0 0 4.075102-0.626939 9.613061-0.626939h26.435918z m-277.211428 2.821225c0.940408-1.358367 1.671837-2.507755 2.194286-3.448164v-11.180408h-23.301225c-3.448163 0-6.478367 0.20898-9.090612 0.626939-2.298776 0.313469-4.179592 1.044898-5.43347 1.985306-1.358367 0.940408-2.298776 2.298776-2.925714 3.970612-0.731429 1.880816-1.149388 4.388571-1.149388 7.418776 0 2.612245 0.522449 5.01551 1.671837 7.105306 0.417959 0.940408 0.940408 1.671837 1.358367 1.985306 1.149388 1.149388 3.343673 1.985306 6.582858 2.507755 1.671837 0.313469 3.239184 0.417959 4.70204 0.417959 4.388571 0 8.672653-0.731429 12.852245-2.089796 2.089796-0.731429 3.657143-1.462857 4.806531-2.089796 2.925714-1.671837 5.537959-4.075102 7.732245-7.209795z m271.882449 0c0.940408-1.358367 1.671837-2.507755 2.194285-3.552654v-11.075918h-23.301224c-3.552653 0-6.582857 0.20898-9.090612 0.626939-2.298776 0.313469-4.179592 1.044898-5.537959 1.985306a9.404082 9.404082 0 0 0-2.925715 3.970612c-0.731429 1.880816-1.149388 4.388571-1.149387 7.418776 0 2.612245 0.522449 5.01551 1.671836 7.105306 0.522449 0.940408 0.940408 1.567347 1.358368 1.985306 1.253878 1.149388 3.448163 1.985306 6.582857 2.507755 1.776327 0.313469 3.343673 0.417959 4.702041 0.417959 4.388571 0 8.672653-0.731429 12.956734-2.089796 2.089796-0.731429 3.657143-1.462857 4.806531-2.089796 2.925714-1.671837 5.537959-4.075102 7.732245-7.209795z" fill="#E46161" p-id="6245"></path></svg>