<svg t="1760608703224" class="icon" viewBox="0 0 1024 1024" version="1.1" xmlns="http://www.w3.org/2000/svg" p-id="7299" width="200" height="200"><path d="M259.776 64h501.76c67.008 0 121.792 52.096 123.52 117.44L896 597.664l-23.904 262.464C866.976 916.64 818.4 960 760.224 960H259.936c-58.624 0-107.392-44-112-101.024L128 611.328l8.256-429.024C137.536 116.608 192.448 64 259.776 64z m-8.544 148.384H767.36c18.4 0 33.408 14.4 33.696 32.352l6.08 375.2a27.648 27.648 0 0 1-25.792 27.744l-98.688 7.872c-26.24 2.112-46.4 23.488-46.4 49.184v115.936c0 24.192-20.128 43.84-44.928 43.84h-161.472c-24.8 0-44.928-19.616-44.928-43.84v-115.936c0-25.696-20.16-47.072-46.4-49.184l-98.88-7.904a27.68 27.68 0 0 1-25.76-27.552l3.648-375.168a33.28 33.28 0 0 1 33.696-32.544z" fill="#2274E5" p-id="7300"></path><path d="M767.36 212.384H251.2a33.28 33.28 0 0 0-33.696 32.544l-3.648 375.168a27.68 27.68 0 0 0 25.792 27.552l98.848 7.904c26.24 2.112 46.4 23.488 46.4 49.184v12.096h251.328v-12.096c0-25.696 20.16-47.072 46.4-49.184l98.688-7.872a27.68 27.68 0 0 0 25.792-27.744l-6.08-375.2a33.312 33.312 0 0 0-33.696-32.352z" fill="#FFFFFF" p-id="7301"></path><path d="M636.256 716.8v103.872c0 24.192-20.128 43.84-44.928 43.84h-161.472c-24.8 0-44.928-19.616-44.928-43.84V716.8h251.328z" fill="#BEC2C8" p-id="7302"></path><path d="M408.8 427.744l-35.104 33.568c33.248 28.768 107.68 93.568 139.712 122.624 43.808-67.968 158.176-192.736 209.92-246.624a1242.56 1242.56 0 0 0-23.904-25.344c-80.32 63.04-170.112 149.12-204.96 184.288l-85.664-68.512z" fill="#2C3B4A" p-id="7303"></path></svg>